<?xml version="1.0" standalone="no"?>
<!DOCTYPE svg PUBLIC "-//W3C//DTD SVG 20010904//EN"
 "http://www.w3.org/TR/2001/REC-SVG-20010904/DTD/svg10.dtd">
<svg version="1.0" xmlns="http://www.w3.org/2000/svg"
 width="2500.000000pt" height="2500.000000pt" viewBox="0 0 2500.000000 2500.000000"
 preserveAspectRatio="xMidYMid meet">
<metadata>
Created by potrace 1.16, written by Peter Selinger 2001-2019
</metadata>
<g transform="translate(0.000000,2500.000000) scale(0.100000,-0.100000)"
fill="#000000" stroke="none">
<path d="M11240 23219 c-107 -10 -292 -57 -393 -99 -91 -38 -248 -141 -341
-223 -86 -76 -215 -249 -271 -362 -45 -93 -86 -219 -107 -330 l-11 -64 -1456
-3 -1456 -3 -94 -28 c-220 -64 -365 -210 -427 -428 -27 -94 -27 -94 -31 -506
l-5 -413 -1053 0 c-907 0 -1064 -2 -1127 -15 -135 -29 -214 -108 -243 -243
-13 -65 -15 -1019 -15 -8892 0 -7873 2 -8827 15 -8892 29 -135 108 -214 243
-243 65 -13 811 -15 6872 -15 6061 0 6807 2 6872 15 135 29 214 108 243 243
13 65 15 1019 15 8892 0 7873 -2 8827 -15 8892 -29 135 -108 214 -243 243 -63
13 -220 15 -1122 15 l-1048 0 -5 413 c-4 371 -6 420 -24 489 -59 227 -214 384
-444 451 -74 21 -75 21 -1535 24 l-1461 4 -11 64 c-37 200 -109 364 -232 527
-147 196 -349 345 -565 417 -181 60 -367 85 -525 70z m247 -215 c32 -3 96 -17
143 -31 424 -123 736 -524 741 -952 l1 -91 1506 0 c866 0 1537 -5 1578 -10 96
-12 177 -52 245 -120 66 -66 105 -144 119 -237 6 -40 10 -410 10 -910 l0 -843
-4485 0 -4485 0 0 843 c0 463 5 870 10 905 27 188 174 335 362 362 36 6 718
10 1574 10 l1510 0 2 91 c9 436 318 829 747 954 139 40 246 47 422 29z m-4835
-2836 c3 -275 7 -394 17 -421 17 -52 80 -113 133 -129 64 -19 9022 -19 9086 0
53 16 116 77 133 129 10 27 14 146 17 421 l3 382 1072 -2 c1202 -3 1115 2
1136 -75 15 -53 15 -17673 0 -17726 -6 -21 -21 -44 -37 -55 -25 -16 -383 -17
-6872 -17 -6499 0 -6847 1 -6873 17 -16 11 -30 33 -37 57 -7 26 -9 2775 -8
8883 3 8413 4 8845 21 8871 9 14 32 31 50 36 19 5 466 10 1094 10 l1062 1 3
-382z"/>
<path d="M11188 22471 c-159 -52 -282 -177 -329 -333 -28 -92 -24 -254 10
-340 48 -124 164 -240 289 -290 49 -20 75 -23 187 -23 112 0 138 3 187 23 125
50 240 165 290 290 20 49 23 75 23 187 0 112 -3 138 -23 187 -50 125 -166 241
-290 289 -81 32 -262 37 -344 10z m275 -210 c64 -27 122 -84 152 -146 20 -43
25 -69 25 -130 0 -93 -30 -164 -91 -220 -60 -54 -117 -75 -204 -75 -87 0 -144
21 -204 75 -120 109 -124 321 -8 434 59 56 121 80 209 81 54 0 90 -6 121 -19z"/>
<path d="M8494 18181 c-59 -27 -109 -75 -138 -133 -22 -43 -26 -66 -26 -132 1
-125 50 -209 152 -260 l52 -26 3330 0 c3217 0 3332 1 3372 19 59 27 109 75
138 133 37 74 37 192 0 266 -29 58 -79 106 -138 133 -40 18 -155 19 -3371 19
-3216 0 -3331 -1 -3371 -19z"/>
<path d="M5706 18124 l-26 -27 0 -398 0 -399 99 50 100 50 3 238 c3 271 6 283
78 302 27 7 222 10 590 9 l549 -1 58 44 c32 25 84 62 116 83 31 21 57 40 57
43 0 3 -8 11 -17 18 -15 11 -165 13 -799 14 l-781 0 -27 -26z"/>
<path d="M7290 18049 c-265 -125 -580 -435 -789 -776 -31 -51 -58 -93 -61 -93
-3 0 -52 72 -109 160 -57 88 -109 160 -115 160 -17 0 -456 -212 -456 -220 0
-5 12 -11 28 -15 50 -12 211 -93 299 -150 115 -76 230 -163 307 -236 35 -32
68 -59 74 -59 5 0 27 24 49 53 119 156 359 389 554 537 106 80 281 180 315
180 18 0 18 -3 -11 84 -32 95 -32 192 0 379 6 35 -4 34 -85 -4z"/>
<path d="M7268 17518 c-41 -29 -84 -60 -96 -69 -21 -15 -21 -23 -24 -355 -3
-382 -4 -384 -75 -403 -52 -15 -1064 -15 -1116 0 -67 18 -71 34 -77 288 l-5
225 -85 37 c-47 21 -91 38 -97 38 -10 1 -13 -80 -13 -373 l0 -373 26 -27 27
-26 782 0 782 0 27 26 26 27 0 518 c0 286 -1 519 -3 519 -2 0 -37 -24 -79 -52z"/>
<path d="M8494 17181 c-59 -27 -109 -75 -138 -133 -22 -43 -26 -66 -26 -132 1
-125 50 -209 152 -260 l52 -26 3981 0 3981 0 52 26 c102 51 152 135 152 259 0
124 -50 208 -152 259 l-52 26 -3980 0 c-3849 0 -3982 -1 -4022 -19z"/>
<path d="M8494 15181 c-59 -27 -109 -75 -138 -133 -22 -43 -26 -66 -26 -132 1
-125 50 -209 152 -260 l52 -26 3330 0 c3217 0 3332 1 3372 19 59 27 109 75
138 133 37 74 37 192 0 266 -29 58 -79 106 -138 133 -40 18 -155 19 -3371 19
-3216 0 -3331 -1 -3371 -19z"/>
<path d="M5706 15124 l-26 -27 0 -398 0 -399 99 50 100 50 3 238 c3 271 6 283
78 302 27 7 222 10 590 9 l549 -1 58 44 c32 25 84 62 116 83 31 21 57 40 57
43 0 3 -8 11 -17 18 -15 11 -165 13 -799 14 l-781 0 -27 -26z"/>
<path d="M7290 15049 c-265 -125 -580 -435 -789 -776 -31 -51 -58 -93 -61 -93
-3 0 -52 72 -109 160 -57 88 -109 160 -115 160 -17 0 -456 -212 -456 -220 0
-5 12 -11 28 -15 50 -12 211 -93 299 -150 115 -76 230 -163 307 -236 35 -32
68 -59 74 -59 5 0 27 24 49 53 119 156 359 389 554 537 106 80 281 180 315
180 18 0 18 -3 -11 84 -32 95 -32 192 0 379 6 35 -4 34 -85 -4z"/>
<path d="M7268 14518 c-41 -29 -84 -60 -96 -69 -21 -15 -21 -23 -24 -355 -3
-382 -4 -384 -75 -403 -52 -15 -1064 -15 -1116 0 -67 18 -71 34 -77 288 l-5
225 -85 37 c-47 21 -91 38 -97 38 -10 1 -13 -80 -13 -373 l0 -373 26 -27 27
-26 782 0 782 0 27 26 26 27 0 518 c0 286 -1 519 -3 519 -2 0 -37 -24 -79 -52z"/>
<path d="M8494 14181 c-59 -27 -109 -75 -138 -133 -22 -43 -26 -66 -26 -132 1
-125 50 -209 152 -260 l52 -26 3981 0 3981 0 52 26 c102 51 152 135 152 259 0
124 -50 208 -152 259 l-52 26 -3980 0 c-3849 0 -3982 -1 -4022 -19z"/>
<path d="M8494 12181 c-59 -27 -109 -75 -138 -133 -22 -43 -26 -66 -26 -132 1
-125 50 -209 152 -260 l52 -26 3330 0 c3217 0 3332 1 3372 19 59 27 109 75
138 133 37 74 37 192 0 266 -29 58 -79 106 -138 133 -40 18 -155 19 -3371 19
-3216 0 -3331 -1 -3371 -19z"/>
<path d="M5706 12124 l-26 -27 0 -398 0 -399 99 50 100 50 3 238 c3 271 6 283
78 302 27 7 222 10 590 9 l549 -1 58 44 c32 25 84 62 116 83 31 21 57 40 57
43 0 3 -8 11 -17 18 -15 11 -165 13 -799 14 l-781 0 -27 -26z"/>
<path d="M7290 12049 c-265 -125 -580 -435 -789 -776 -31 -51 -58 -93 -61 -93
-3 0 -52 72 -109 160 -57 88 -109 160 -115 160 -17 0 -456 -212 -456 -220 0
-5 12 -11 28 -15 50 -12 211 -93 299 -150 115 -76 230 -163 307 -236 35 -32
68 -59 74 -59 5 0 27 24 49 53 119 156 359 389 554 537 106 80 281 180 315
180 18 0 18 -3 -11 84 -32 95 -32 192 0 379 6 35 -4 34 -85 -4z"/>
<path d="M7268 11518 c-41 -29 -84 -60 -96 -69 -21 -15 -21 -23 -24 -355 -3
-382 -4 -384 -75 -403 -52 -15 -1064 -15 -1116 0 -67 18 -71 34 -77 288 l-5
225 -85 37 c-47 21 -91 38 -97 38 -10 1 -13 -80 -13 -373 l0 -373 26 -27 27
-26 782 0 782 0 27 26 26 27 0 518 c0 286 -1 519 -3 519 -2 0 -37 -24 -79 -52z"/>
<path d="M8494 11181 c-59 -27 -109 -75 -138 -133 -22 -43 -26 -66 -26 -132 1
-125 50 -209 152 -260 l52 -26 3981 0 3981 0 52 26 c102 51 152 135 152 259 0
124 -50 208 -152 259 l-52 26 -3980 0 c-3849 0 -3982 -1 -4022 -19z"/>
<path d="M8494 9181 c-59 -27 -109 -75 -138 -133 -22 -43 -26 -66 -26 -132 1
-125 50 -209 152 -260 l52 -26 3330 0 c3217 0 3332 1 3372 19 59 27 109 75
138 133 37 74 37 192 0 266 -29 58 -79 106 -138 133 -40 18 -155 19 -3371 19
-3216 0 -3331 -1 -3371 -19z"/>
<path d="M5706 9124 l-26 -27 0 -398 0 -399 99 50 100 50 3 238 c3 271 6 283
78 302 27 7 222 10 590 9 l549 -1 58 44 c32 25 84 62 116 83 31 21 57 40 57
43 0 3 -8 11 -17 18 -15 11 -165 13 -799 14 l-781 0 -27 -26z"/>
<path d="M7290 9049 c-265 -125 -580 -435 -789 -776 -31 -51 -58 -93 -61 -93
-3 0 -52 72 -109 160 -57 88 -109 160 -115 160 -17 0 -456 -212 -456 -220 0
-5 12 -11 28 -15 50 -12 211 -93 299 -150 115 -76 230 -163 307 -236 35 -32
68 -59 74 -59 5 0 27 24 49 53 119 156 359 389 554 537 106 80 281 180 315
180 18 0 18 -3 -11 84 -32 95 -32 192 0 379 6 35 -4 34 -85 -4z"/>
<path d="M7268 8518 c-41 -29 -84 -60 -96 -69 -21 -15 -21 -23 -24 -355 -3
-382 -4 -384 -75 -403 -52 -15 -1064 -15 -1116 0 -67 18 -71 34 -77 288 l-5
225 -85 37 c-47 21 -91 38 -97 38 -10 1 -13 -80 -13 -373 l0 -373 26 -27 27
-26 782 0 782 0 27 26 26 27 0 518 c0 286 -1 519 -3 519 -2 0 -37 -24 -79 -52z"/>
<path d="M8494 8181 c-59 -27 -109 -75 -138 -133 -22 -43 -26 -66 -26 -132 1
-125 50 -209 152 -260 l52 -26 3981 0 3981 0 52 26 c102 51 152 135 152 259 0
124 -50 208 -152 259 l-52 26 -3980 0 c-3849 0 -3982 -1 -4022 -19z"/>
<path d="M8494 6181 c-59 -27 -109 -75 -138 -133 -22 -43 -26 -66 -26 -132 1
-125 50 -209 152 -260 l52 -26 3330 0 c3217 0 3332 1 3372 19 59 27 109 75
138 133 37 74 37 192 0 266 -29 58 -79 106 -138 133 -40 18 -155 19 -3371 19
-3216 0 -3331 -1 -3371 -19z"/>
<path d="M5706 6124 l-26 -27 0 -398 0 -399 99 50 100 50 3 238 c3 271 6 283
78 302 27 7 222 10 590 9 l549 -1 58 44 c32 25 84 62 116 83 31 21 57 40 57
43 0 3 -8 11 -17 18 -15 11 -165 13 -799 14 l-781 0 -27 -26z"/>
<path d="M7290 6049 c-265 -125 -580 -435 -789 -776 -31 -51 -58 -93 -61 -93
-3 0 -52 72 -109 160 -57 88 -109 160 -115 160 -17 0 -456 -212 -456 -220 0
-5 12 -11 28 -15 50 -12 211 -93 299 -150 115 -76 230 -163 307 -236 35 -32
68 -59 74 -59 5 0 27 24 49 53 119 156 359 389 554 537 106 80 281 180 315
180 18 0 18 -3 -11 84 -32 95 -32 192 0 379 6 35 -4 34 -85 -4z"/>
<path d="M7268 5518 c-41 -29 -84 -60 -96 -69 -21 -15 -21 -23 -24 -355 -3
-382 -4 -384 -75 -403 -52 -15 -1064 -15 -1116 0 -67 18 -71 34 -77 288 l-5
225 -85 37 c-47 21 -91 38 -97 38 -10 1 -13 -80 -13 -373 l0 -373 26 -27 27
-26 782 0 782 0 27 26 26 27 0 518 c0 286 -1 519 -3 519 -2 0 -37 -24 -79 -52z"/>
<path d="M8494 5181 c-59 -27 -109 -75 -138 -133 -22 -43 -26 -66 -26 -132 1
-125 50 -209 152 -260 l52 -26 3981 0 3981 0 52 26 c102 51 152 135 152 259 0
124 -50 208 -152 259 l-52 26 -3980 0 c-3849 0 -3982 -1 -4022 -19z"/>
<path d="M19550 18760 c-137 -24 -226 -77 -289 -171 -44 -65 -56 -99 -71 -199
-7 -43 -10 -2140 -8 -6315 3 -5776 4 -6253 19 -6290 29 -69 635 -1637 654
-1690 30 -87 137 -335 144 -335 9 0 43 90 413 1080 176 470 330 873 342 895
13 22 29 65 35 95 9 42 11 1562 9 6320 -3 5795 -4 6269 -20 6318 -44 140 -142
238 -280 280 -44 13 -124 16 -478 18 -234 1 -445 -1 -470 -6z m925 -226 c46
-25 65 -45 91 -94 18 -33 19 -71 22 -612 l3 -578 -601 0 -601 0 3 578 c3 541
4 579 22 612 35 65 75 96 146 111 19 4 224 7 455 6 409 -2 421 -3 460 -23z
m-585 -7089 l0 -5595 -250 0 -250 0 0 5595 0 5595 250 0 250 0 0 -5595z m700
0 l0 -5595 -245 0 -245 0 0 5595 0 5595 245 0 245 0 0 -5595z m-114 -5927
c-366 -1040 -471 -1328 -481 -1328 -7 0 -113 281 -245 648 -128 356 -246 682
-261 725 l-28 77 529 0 530 0 -44 -122z"/>
</g>
</svg>
